<svg version="1.1" id="Layer_1" xmlns="http://www.w3.org/2000/svg" xmlns:xlink="http://www.w3.org/1999/xlink" viewBox="0 -16 512 512" xml:space="preserve" fill="#000000">
  <g id="SVGRepo_bgCarrier" stroke-width="0"></g>
  <g id="SVGRepo_tracerCarrier" stroke-linecap="round" stroke-linejoin="round"></g>
  <g id="SVGRepo_iconCarrier">
    <path style="fill:black;" d="M437.319,260.928c-41.171,0-74.654,33.491-74.654,74.662c0,41.155,33.483,74.655,74.654,74.655 c41.172,0,74.671-33.5,74.671-74.655C511.99,294.419,478.491,260.928,437.319,260.928z"></path>
    <path style="fill:#CCD1D9;" d="M437.319,298.247c-20.577,0-37.327,16.749-37.327,37.343c0,20.578,16.75,37.327,37.327,37.327 c20.594,0,37.344-16.749,37.344-37.327C474.663,314.996,457.913,298.247,437.319,298.247z"></path>
    <path style="fill:#E6E9ED;" d="M437.335,346.246c-3.766,0-7.422-2-9.359-5.531l-42.67-77.881 c-2.828-5.172-0.938-11.641,4.234-14.485c5.155-2.828,11.64-0.938,14.468,4.234l42.671,77.881 c2.828,5.156,0.938,11.641-4.234,14.469C440.819,345.824,439.069,346.246,437.335,346.246z"></path>
    <path style="fill:black;" d="M74.67,260.928C33.499,260.928,0,294.419,0,335.59c0,41.155,33.5,74.655,74.67,74.655 s74.655-33.5,74.655-74.655C149.325,294.419,115.841,260.928,74.67,260.928z"></path>
    <path style="fill:#CCD1D9;" d="M74.67,298.247c-20.593,0-37.343,16.749-37.343,37.343c0,20.578,16.75,37.327,37.343,37.327 c20.578,0,37.328-16.749,37.328-37.327C111.998,314.996,95.248,298.247,74.67,298.247z"></path>
    <path style="fill:#ba250f;" d="M469.085,193.787c-5.281-24.953-21.516-60.89-68.765-90.42c-4.156-2.594-9.53-2.031-13.046,1.359 l-21.344,20.515c-3.359,3.234-4.234,8.281-2.141,12.453l10.812,21.625c-19.219-4.484-47.375-9.796-72.827-9.796 c-15.983,0-29.187,2.141-39.265,6.391c-19.359,8.171-37.078,37.233-44.546,50.874l-164.12-19.626 c-4.469-0.531-8.781,1.781-10.797,5.797c-1.234,2.453-2.359,6.469-0.641,11.594c2.828,8.437,13.578,21.483,71.983,54.343 c15.875,8.938,31.625,17.241,43.328,23.288l-87.811,43.859c-4.219,2.094-6.547,6.703-5.75,11.344 c0.797,4.625,4.516,8.203,9.188,8.781l81.702,10.203l18.75,18.749c2,2,4.703,3.125,7.531,3.125h159.997 c2.875,0,5.641-1.156,7.641-3.219c2-2.047,3.094-4.828,3.031-7.703c-0.016-0.547-0.953-54.796,32.375-89.076 c17.952-18.46,42.967-27.882,74.326-27.992c4.734-0.016,8.891-3.156,10.203-7.703C469.147,241.693,474.913,221.208,469.085,193.787z "></path>
    <path style="fill:#ba250f;" d="M217.964,206.787L53.843,187.162c-4.469-0.531-8.781,1.781-10.797,5.797 c-1.234,2.453-2.359,6.469-0.641,11.594c2.828,8.437,13.578,21.483,71.983,54.343c15.875,8.938,31.625,17.241,43.328,23.288 C157.716,282.184,160.966,223.583,217.964,206.787z"></path>
    <path style="fill:black;" d="M374.602,159.319c-19.219-4.484-47.375-9.796-72.827-9.796c-15.983,0-29.187,2.141-39.265,6.391 c-19.359,8.171-37.078,37.233-44.546,50.874c0,0,26.5,6.953,79.999-7.64C369.962,179.506,374.602,159.319,374.602,159.319z"></path>
    <g>
      <polygon style="fill:#E6E9ED;" points="218.73,378.245 135.982,293.028 157.716,282.184 249.62,378.245 "></polygon>
      <path style="fill:#E6E9ED;" d="M245.323,271.599c-17.64,0-31.999,14.336-31.999,31.992c0,17.64,14.359,31.999,31.999,31.999 c17.656,0,32-14.359,32-31.999C277.323,285.934,262.979,271.599,245.323,271.599z"></path>
    </g>
    <path style="fill:#F5F7FA;" d="M284.87,328.043c4.172,4.156,4.172,10.922,0,15.078c-4.172,4.172-10.922,4.172-15.078,0 c-4.172-4.156-4.172-10.922,0-15.078C273.948,323.871,280.698,323.871,284.87,328.043z"></path>
    <path style="fill:#E6E9ED;" d="M393.305,231.021l-66.812,32.938l39.844,40.319c4.469-9.141,10.328-18.125,18.031-26.031 c10.671-10.976,23.843-18.757,39.357-23.289L393.305,231.021z"></path> 
    <path style="fill: blue" d="M301.984 53.2693L313.781 57.6853C317.639 59.1273 321.142 61.3798 324.055 64.2908C326.968 67.2018 329.222 70.7036 330.667 74.56L335.083 86.4C335.659 87.9136 336.682 89.2164 338.015 90.1356C339.348 91.0549 340.93 91.5471 342.549 91.5471C344.169 91.5471 345.75 91.0549 347.084 90.1356C348.417 89.2164 349.44 87.9136 350.016 86.4L354.432 74.6027C355.878 70.7491 358.133 67.2495 361.043 64.339C363.954 61.4285 367.453 59.1743 371.307 57.728L383.104 53.312C384.618 52.7358 385.921 51.7132 386.84 50.3798C387.759 49.0463 388.251 47.4649 388.251 45.8453C388.251 44.2257 387.759 42.6444 386.84 41.3109C385.921 39.9775 384.618 38.9548 383.104 38.3787L371.307 33.9627C367.45 32.5182 363.949 30.2635 361.038 27.3507C358.127 24.4379 355.874 20.9347 354.432 17.0773L350.059 5.19467C349.483 3.68103 348.46 2.37824 347.127 1.45903C345.793 0.539812 344.212 0.0475769 342.592 0.0475769C340.972 0.0475769 339.391 0.539812 338.058 1.45903C336.724 2.37824 335.702 3.68103 335.125 5.19467L330.667 16.992C329.225 20.8493 326.972 24.3526 324.061 27.2654C321.15 30.1782 317.648 32.4329 313.792 33.8773L301.995 38.2933C300.481 38.8695 299.178 39.8921 298.259 41.2256C297.34 42.5591 296.848 44.1404 296.848 45.76C296.848 47.3796 297.34 48.9609 298.259 50.2944C299.178 51.6279 300.481 52.6505 301.995 53.2267L301.984 53.2693ZM342.571 29.152C346.528 36.0782 352.266 41.8198 359.189 45.7813C352.263 49.7399 346.525 55.4822 342.571 62.4107C338.607 55.4856 332.866 49.7447 325.941 45.7813C332.866 41.818 338.607 36.0771 342.571 29.152Z" fill="black"></path>
    <path style="fill: blue" d="M391.923 102.923L400.862 106.272C403.526 107.272 405.945 108.831 407.956 110.844C409.967 112.856 411.523 115.277 412.521 117.941L415.87 126.88C416.441 128.407 417.464 129.722 418.803 130.651C420.143 131.58 421.734 132.078 423.363 132.078C424.993 132.078 426.584 131.58 427.923 130.651C429.262 129.722 430.286 128.407 430.857 126.88L434.195 117.941C435.195 115.276 436.753 112.855 438.766 110.842C440.779 108.83 443.199 107.271 445.865 106.272L454.803 102.923C456.313 102.342 457.61 101.318 458.526 99.985C459.441 98.652 459.931 97.073 459.931 95.456C459.931 93.839 459.441 92.2599 458.526 90.927C457.61 89.5941 456.313 88.5698 454.803 87.9893L445.865 84.5973C443.201 83.6052 440.782 82.0514 438.772 80.0416C436.763 78.0317 435.209 75.6129 434.217 72.9493L430.857 64C430.286 62.4734 429.262 61.1575 427.923 60.2285C426.584 59.2996 424.993 58.8018 423.363 58.8018C421.734 58.8018 420.143 59.2996 418.803 60.2285C417.464 61.1575 416.441 62.4734 415.87 64L412.521 72.9493C411.523 75.6128 409.966 78.0315 407.955 80.0426C405.944 82.0537 403.526 83.6105 400.862 84.608L391.913 87.9573C390.399 88.5335 389.096 89.5561 388.177 90.8896C387.258 92.223 386.766 93.8044 386.766 95.424C386.766 97.0436 387.258 98.6249 388.177 99.9584C389.096 101.292 390.399 102.314 391.913 102.891L391.923 102.923ZM423.358 86.4C425.793 89.9117 428.838 92.9575 432.35 95.392C428.846 97.8312 425.801 100.872 423.358 104.373C420.921 100.87 417.88 97.8287 414.377 95.392C417.885 92.9572 420.927 89.9114 423.358 86.4Z" fill="black"></path>
    <path style="fill: blue" d="M441.897 53.2693L450.836 56.6187C453.498 57.615 455.916 59.1701 457.927 61.1793C459.938 63.1885 461.496 65.6052 462.494 68.2667L465.844 77.2053C466.415 78.7319 467.438 80.0478 468.777 80.9768C470.116 81.9057 471.707 82.4035 473.337 82.4035C474.967 82.4035 476.558 81.9057 477.897 80.9768C479.236 80.0478 480.26 78.7319 480.83 77.2053L484.18 68.2667C485.175 65.6036 486.73 63.1849 488.739 61.1737C490.748 59.1625 493.166 57.6056 495.828 56.608L504.777 53.2587C506.291 52.6825 507.594 51.6599 508.513 50.3264C509.432 48.9929 509.924 47.4116 509.924 45.792C509.924 44.1724 509.432 42.591 508.513 41.2576C507.594 39.9241 506.291 38.9015 504.777 38.3253L495.838 34.9653C493.177 33.9695 490.76 32.4145 488.751 30.4051C486.741 28.3957 485.186 25.9788 484.19 23.3173L480.841 14.368C480.27 12.8414 479.247 11.5255 477.908 10.5966C476.569 9.66757 474.978 9.16977 473.348 9.16977C471.718 9.16977 470.127 9.66757 468.788 10.5966C467.449 11.5255 466.425 12.8414 465.854 14.368L462.505 23.3173C461.508 25.9795 459.951 28.3968 457.939 30.4061C455.928 32.4155 453.509 33.9702 450.846 34.9653L441.897 38.3253C440.383 38.9015 439.081 39.9241 438.161 41.2576C437.242 42.591 436.75 44.1724 436.75 45.792C436.75 47.4116 437.242 48.9929 438.161 50.3264C439.081 51.6599 440.383 52.6825 441.897 53.2587V53.2693ZM473.332 36.8C475.774 40.2988 478.814 43.3392 482.313 45.7813C478.814 48.2235 475.774 51.2639 473.332 54.7627C470.895 51.2594 467.854 48.2181 464.35 45.7813C467.851 43.3418 470.892 40.301 473.332 36.8Z" fill="black"></path>
  </g>
</svg>