<svg xmlns="http://www.w3.org/2000/svg" viewBox="0 0 512 512" style="enable-background:new 0 0 512 512" xml:space="preserve">
  <path style="fill:black" d="M19.064 370.089h85.962v89.6H19.064zM406.975 370.089h85.962v89.6h-85.962z"/>
  <path style="fill:#db412c" d="M503.83 273.631c0-5.991-2.625-15.142-5.839-20.197l-21.831-34.38-33.618-135.026c-4.347-17.441-22.604-31.711-40.579-31.711H110.036c-17.974 0-36.232 14.271-40.579 31.711L35.84 219.054l-21.831 34.38c-3.214 5.055-5.839 14.205-5.839 20.197l55.852 30.502L8.17 334.636v57.235h135.419L256 359.135l112.411 32.735H503.83v-57.235l-55.852-30.502 55.852-30.502z"/>
  <path style="fill:#fff" d="M430.944 219.054c14.082 0 24.42-13.227 21.018-26.893L426.13 88.407c-2.512-10.08-14.258-19.26-24.642-19.26H110.512c-10.385 0-22.13 9.18-24.641 19.257L60.038 192.162c-3.402 13.665 6.936 26.892 21.018 26.892h349.888z"/>
  <path style="fill:yellow" d="M77.094 262.327c16.842 0 30.502 16.179 30.502 36.154 0 19.963-13.661 36.154-30.502 36.154H8.17v-72.309h68.924v.001zM503.83 262.327v72.309h-68.924c-16.842 0-30.502-16.192-30.502-36.154 0-19.976 13.661-36.154 30.502-36.154h68.924v-.001z"/>
  <path style="fill:#ba250f" d="m346.624 337.348 21.787 54.523H143.589l21.787-54.523z"/>
  <path d="M69.522 227.227h372.956a8.17 8.17 0 0 0 0-16.34H69.522a8.17 8.17 0 0 0 0 16.34z"/>
  <path d="M504.888 249.055s-.002 0 0 0l-21.123-33.259-7.912-31.781h17.083a8.17 8.17 0 0 0 0-16.34h-21.152L450.47 82.056c-5.292-21.258-26.597-37.91-48.504-37.91H110.034c-21.906 0-43.212 16.652-48.504 37.91l-21.314 85.618H19.064a8.17 8.17 0 0 0 0 16.34h17.083l-7.912 31.781-21.123 33.26C3.058 255.441 0 265.961 0 273.525v118.346a8.17 8.17 0 0 0 8.17 8.17h2.723v59.643a8.17 8.17 0 0 0 8.17 8.17h85.963a8.17 8.17 0 0 0 8.17-8.17v-35.132a8.17 8.17 0 0 0-16.34 0v26.962H27.234v-51.472h341.147l.028.002.046-.002h116.311v51.472h-69.622v-26.962a8.17 8.17 0 0 0-16.34 0v35.132a8.17 8.17 0 0 0 8.17 8.17h85.963a8.17 8.17 0 0 0 8.17-8.17v-59.643h2.723a8.17 8.17 0 0 0 8.17-8.17V273.525c0-7.564-3.058-18.084-7.112-24.47zM16.34 273.525c0-4.458 2.177-11.946 4.567-15.709l21.834-34.378a8.21 8.21 0 0 0 1.032-2.406L77.387 86.003c3.443-13.832 18.394-25.516 32.647-25.516h291.932c14.253 0 29.205 11.686 32.647 25.517l33.614 135.026a8.16 8.16 0 0 0 1.032 2.406l21.833 34.378c2.39 3.764 4.567 11.252 4.567 15.71V383.7H373.94l-19.734-49.379a8.17 8.17 0 0 0-7.586-5.139H165.38a8.167 8.167 0 0 0-7.586 5.139L138.06 383.7H16.34V273.525zM356.343 383.7H155.657l15.258-38.177h170.171l15.257 38.177z"/>
  <path d="M40.851 342.801h30.742c24.355 0 44.17-19.814 44.17-44.17 0-24.355-19.814-44.17-44.17-44.17H46.885a8.17 8.17 0 0 0 0 16.34h24.708c15.345 0 27.83 12.484 27.83 27.83s-12.484 27.83-27.83 27.83H40.851a8.17 8.17 0 0 0 0 16.34zM396.237 298.631c0 24.356 19.814 44.17 44.17 44.17h30.742a8.17 8.17 0 0 0 0-16.34h-30.742c-15.345 0-27.83-12.484-27.83-27.83 0-15.345 12.484-27.83 27.83-27.83h24.709a8.17 8.17 0 0 0 0-16.34h-24.709c-24.356 0-44.17 19.814-44.17 44.17z"/>
  <path style="fill: blue" d="M301.984 53.2693L313.781 57.6853C317.639 59.1273 321.142 61.3798 324.055 64.2908C326.968 67.2018 329.222 70.7036 330.667 74.56L335.083 86.4C335.659 87.9136 336.682 89.2164 338.015 90.1356C339.348 91.0549 340.93 91.5471 342.549 91.5471C344.169 91.5471 345.75 91.0549 347.084 90.1356C348.417 89.2164 349.44 87.9136 350.016 86.4L354.432 74.6027C355.878 70.7491 358.133 67.2495 361.043 64.339C363.954 61.4285 367.453 59.1743 371.307 57.728L383.104 53.312C384.618 52.7358 385.921 51.7132 386.84 50.3798C387.759 49.0463 388.251 47.4649 388.251 45.8453C388.251 44.2257 387.759 42.6444 386.84 41.3109C385.921 39.9775 384.618 38.9548 383.104 38.3787L371.307 33.9627C367.45 32.5182 363.949 30.2635 361.038 27.3507C358.127 24.4379 355.874 20.9347 354.432 17.0773L350.059 5.19467C349.483 3.68103 348.46 2.37824 347.127 1.45903C345.793 0.539812 344.212 0.0475769 342.592 0.0475769C340.972 0.0475769 339.391 0.539812 338.058 1.45903C336.724 2.37824 335.702 3.68103 335.125 5.19467L330.667 16.992C329.225 20.8493 326.972 24.3526 324.061 27.2654C321.15 30.1782 317.648 32.4329 313.792 33.8773L301.995 38.2933C300.481 38.8695 299.178 39.8921 298.259 41.2256C297.34 42.5591 296.848 44.1404 296.848 45.76C296.848 47.3796 297.34 48.9609 298.259 50.2944C299.178 51.6279 300.481 52.6505 301.995 53.2267L301.984 53.2693ZM342.571 29.152C346.528 36.0782 352.266 41.8198 359.189 45.7813C352.263 49.7399 346.525 55.4822 342.571 62.4107C338.607 55.4856 332.866 49.7447 325.941 45.7813C332.866 41.818 338.607 36.0771 342.571 29.152Z" fill="black"></path>
  <path style="fill: blue" d="M391.923 102.923L400.862 106.272C403.526 107.272 405.945 108.831 407.956 110.844C409.967 112.856 411.523 115.277 412.521 117.941L415.87 126.88C416.441 128.407 417.464 129.722 418.803 130.651C420.143 131.58 421.734 132.078 423.363 132.078C424.993 132.078 426.584 131.58 427.923 130.651C429.262 129.722 430.286 128.407 430.857 126.88L434.195 117.941C435.195 115.276 436.753 112.855 438.766 110.842C440.779 108.83 443.199 107.271 445.865 106.272L454.803 102.923C456.313 102.342 457.61 101.318 458.526 99.985C459.441 98.652 459.931 97.073 459.931 95.456C459.931 93.839 459.441 92.2599 458.526 90.927C457.61 89.5941 456.313 88.5698 454.803 87.9893L445.865 84.5973C443.201 83.6052 440.782 82.0514 438.772 80.0416C436.763 78.0317 435.209 75.6129 434.217 72.9493L430.857 64C430.286 62.4734 429.262 61.1575 427.923 60.2285C426.584 59.2996 424.993 58.8018 423.363 58.8018C421.734 58.8018 420.143 59.2996 418.803 60.2285C417.464 61.1575 416.441 62.4734 415.87 64L412.521 72.9493C411.523 75.6128 409.966 78.0315 407.955 80.0426C405.944 82.0537 403.526 83.6105 400.862 84.608L391.913 87.9573C390.399 88.5335 389.096 89.5561 388.177 90.8896C387.258 92.223 386.766 93.8044 386.766 95.424C386.766 97.0436 387.258 98.6249 388.177 99.9584C389.096 101.292 390.399 102.314 391.913 102.891L391.923 102.923ZM423.358 86.4C425.793 89.9117 428.838 92.9575 432.35 95.392C428.846 97.8312 425.801 100.872 423.358 104.373C420.921 100.87 417.88 97.8287 414.377 95.392C417.885 92.9572 420.927 89.9114 423.358 86.4Z" fill="black"></path>
  <path style="fill: blue" d="M441.897 53.2693L450.836 56.6187C453.498 57.615 455.916 59.1701 457.927 61.1793C459.938 63.1885 461.496 65.6052 462.494 68.2667L465.844 77.2053C466.415 78.7319 467.438 80.0478 468.777 80.9768C470.116 81.9057 471.707 82.4035 473.337 82.4035C474.967 82.4035 476.558 81.9057 477.897 80.9768C479.236 80.0478 480.26 78.7319 480.83 77.2053L484.18 68.2667C485.175 65.6036 486.73 63.1849 488.739 61.1737C490.748 59.1625 493.166 57.6056 495.828 56.608L504.777 53.2587C506.291 52.6825 507.594 51.6599 508.513 50.3264C509.432 48.9929 509.924 47.4116 509.924 45.792C509.924 44.1724 509.432 42.591 508.513 41.2576C507.594 39.9241 506.291 38.9015 504.777 38.3253L495.838 34.9653C493.177 33.9695 490.76 32.4145 488.751 30.4051C486.741 28.3957 485.186 25.9788 484.19 23.3173L480.841 14.368C480.27 12.8414 479.247 11.5255 477.908 10.5966C476.569 9.66757 474.978 9.16977 473.348 9.16977C471.718 9.16977 470.127 9.66757 468.788 10.5966C467.449 11.5255 466.425 12.8414 465.854 14.368L462.505 23.3173C461.508 25.9795 459.951 28.3968 457.939 30.4061C455.928 32.4155 453.509 33.9702 450.846 34.9653L441.897 38.3253C440.383 38.9015 439.081 39.9241 438.161 41.2576C437.242 42.591 436.75 44.1724 436.75 45.792C436.75 47.4116 437.242 48.9929 438.161 50.3264C439.081 51.6599 440.383 52.6825 441.897 53.2587V53.2693ZM473.332 36.8C475.774 40.2988 478.814 43.3392 482.313 45.7813C478.814 48.2235 475.774 51.2639 473.332 54.7627C470.895 51.2594 467.854 48.2181 464.35 45.7813C467.851 43.3418 470.892 40.301 473.332 36.8Z" fill="black"></path>
</svg>