<svg version="1.1" id="Layer_1" xmlns="http://www.w3.org/2000/svg" xmlns:xlink="http://www.w3.org/1999/xlink" x="0px" y="0px"
	 width="100%" viewBox="0 0 512 512" enable-background="new 0 0 512 512" xml:space="preserve">
<path fill="#000000" opacity="1.000000" stroke="none" 
	d="
M513.000000,356.541931 
	C509.764679,365.557678 506.218567,373.964630 500.356720,381.133209 
	C484.928070,400.001068 465.411285,410.665039 440.679932,411.401245 
	C422.139893,411.953186 405.509521,406.717529 391.065704,395.346466 
	C373.874451,381.812531 363.763977,364.205170 361.524902,342.070740 
	C359.919342,326.198792 362.642365,311.315613 369.946075,297.355042 
	C375.313568,287.095367 382.716309,278.292206 392.382141,271.715668 
	C395.394135,269.666351 395.916077,267.803162 394.013062,264.791809 
	C391.733063,261.183899 389.705780,257.416260 387.345459,253.330704 
	C374.471832,263.124878 363.870483,274.178864 356.163239,287.784821 
	C345.060120,307.385620 339.676727,328.563080 339.333344,351.062469 
	C339.200836,359.748169 331.785980,366.283295 321.814697,366.334320 
	C303.983429,366.425598 286.151398,366.370636 268.319702,366.372650 
	C243.988571,366.375366 219.657425,366.389343 195.326309,366.368958 
	C181.522736,366.357391 175.856445,360.922699 175.724731,347.175140 
	C175.688995,343.444153 174.460526,342.095581 170.779800,342.303955 
	C166.626389,342.539093 162.450256,342.385956 158.284058,342.376831 
	C155.939774,342.371704 154.667831,343.291473 154.321075,345.820404 
	C152.083435,362.140594 145.066666,376.414490 133.719711,388.059845 
	C122.030754,400.056213 107.662201,407.826202 90.807625,410.401886 
	C67.955330,413.894043 47.278545,409.038940 29.083799,394.500336 
	C15.785407,383.874176 7.167253,370.203522 2.795097,353.826965 
	C2.404001,352.362061 1.997406,350.969513 1.130563,349.331299 
	C1.000000,338.645782 1.000000,328.291534 1.000000,317.468658 
	C3.948798,313.632599 3.901861,309.094788 5.548337,305.189941 
	C16.138968,280.072540 34.646770,263.813690 61.038017,258.192047 
	C85.820297,252.913101 108.772095,258.472961 128.537979,275.202179 
	C132.759277,278.774933 136.132782,283.004913 139.601608,287.187775 
	C141.853348,289.902954 143.843292,291.245270 147.606949,289.386871 
	C154.987747,285.742340 162.857864,283.859497 171.239853,284.605530 
	C174.534973,284.898834 177.878052,284.653595 182.429306,284.653595 
	C177.539474,279.919861 172.566971,277.071045 167.917603,273.906006 
	C148.304703,260.554565 128.564865,247.389618 108.868217,234.161270 
	C107.175552,233.024460 105.362198,232.158798 103.254944,232.526627 
	C85.649040,235.599701 68.056580,238.751160 50.438374,241.751541 
	C45.443592,242.602142 40.528637,244.347015 35.270367,242.401215 
	C29.655167,240.323349 27.032188,236.174728 26.808077,230.680023 
	C26.596420,225.490570 28.349884,220.902222 33.467907,218.255875 
	C42.740734,213.461288 51.958397,208.559998 61.669567,203.455978 
	C57.773037,199.194214 52.880581,197.067200 48.700954,194.011490 
	C44.324314,190.811752 40.237320,187.371979 39.702442,181.508118 
	C38.852070,172.185440 43.323200,165.643723 53.550621,165.177719 
	C71.426155,164.363266 89.468048,162.938507 107.249626,166.545120 
	C116.559792,168.433472 124.598602,172.938705 131.184967,179.933182 
	C138.262650,187.449402 145.558563,194.560730 155.533905,198.459564 
	C164.852066,202.101532 174.413132,201.688385 184.037079,201.617004 
	C186.123352,201.601517 186.768921,200.108582 187.618408,198.648834 
	C196.887085,182.721878 209.303497,169.807938 224.855713,159.922180 
	C234.032623,154.088852 243.907928,149.771301 254.403900,147.020523 
	C258.126495,146.044907 262.139740,145.867294 264.727692,149.799698 
	C266.833252,152.999146 266.949219,156.294983 264.999451,159.668457 
	C263.587128,162.112061 261.096741,162.623383 258.734497,163.328094 
	C241.816376,168.375092 227.146210,177.163559 215.092575,190.056061 
	C211.375137,194.032181 208.366318,198.677536 205.100632,203.066757 
	C203.197815,205.624252 203.697235,207.382202 206.717667,208.903732 
	C221.417633,216.308716 236.029190,223.889130 250.679764,231.392349 
	C252.308441,232.226456 253.839584,232.867676 255.854523,232.003357 
	C281.325226,221.077728 306.861267,210.304092 332.306519,199.319977 
	C336.210449,197.634735 339.741577,195.085846 343.947388,192.644882 
	C334.212128,179.532700 323.012085,169.420059 307.827393,164.222610 
	C302.625092,162.441956 297.271210,161.411621 291.914337,160.311859 
	C287.580383,159.422073 284.374207,155.343521 284.771973,151.475601 
	C285.297485,146.365265 288.705414,143.099274 293.944733,143.740814 
	C311.447998,145.884064 327.244812,152.163712 340.852448,163.674454 
	C346.686859,168.609802 351.470245,174.504440 356.979370,180.463928 
	C361.509094,176.122665 363.346130,170.666702 364.556610,165.077087 
	C367.182556,152.951218 363.308716,141.857147 358.553436,130.963379 
	C356.572327,126.424805 353.673737,122.344795 352.563843,117.350388 
	C351.401001,112.117874 353.130096,108.134384 357.057648,105.111786 
	C361.207642,101.918007 365.976379,101.743034 370.698730,103.884857 
	C388.140320,111.795525 404.615723,121.326134 419.570496,133.365112 
	C432.635620,143.882904 444.825531,155.271362 455.427856,168.345444 
	C463.518097,178.321732 462.596619,196.469711 449.377899,205.176712 
	C446.461761,207.097534 444.902222,208.836807 446.033844,212.852020 
	C447.596802,218.397690 443.693726,225.739014 438.392639,228.199219 
	C428.311920,232.877563 417.324799,235.340485 407.499634,240.673492 
	C405.914856,241.533676 404.090759,242.057419 402.627869,244.184799 
	C404.971100,248.836014 407.391022,253.716232 409.884857,258.558411 
	C411.211151,261.133636 413.223663,260.473114 415.469086,259.823944 
	C432.040253,255.033218 448.597351,255.019394 464.838623,261.055176 
	C487.605469,269.516052 503.511017,284.992340 511.615967,308.126343 
	C511.889832,308.907990 512.292847,309.644409 512.817810,310.700989 
	C513.000000,314.030609 513.000000,317.061188 512.730469,320.795959 
	C505.443909,326.934937 499.580475,325.007904 496.558777,316.435364 
	C488.886719,294.669647 474.332367,280.275879 451.562286,274.823669 
	C440.844727,272.257416 430.329773,272.727051 420.019989,276.770508 
	C420.320129,279.778473 422.042145,281.722595 423.081696,283.951843 
	C426.977753,292.307068 427.008545,292.261322 435.958832,290.831024 
	C437.422485,290.597107 438.973724,290.557251 440.440613,290.754242 
	C451.703094,292.266998 461.639679,296.006927 469.953461,304.543091 
	C481.173370,316.063019 484.532074,336.141785 478.019806,350.831696 
	C470.644592,367.468231 454.090332,378.515594 433.535889,376.507629 
	C413.188599,374.519897 396.961700,357.199310 395.700287,336.741882 
	C394.904602,323.837952 398.710846,312.538147 408.374542,303.505707 
	C409.840057,302.135956 412.205200,300.836914 410.942169,298.153351 
	C408.846649,293.700806 406.604736,289.317169 404.411774,284.878754 
	C403.339539,285.341766 402.854858,285.470795 402.458954,285.733551 
	C384.829834,297.434021 373.983337,322.853088 378.912048,345.669098 
	C382.872589,364.003235 393.229279,378.012634 409.584259,387.206390 
	C432.522430,400.100800 459.415314,395.835175 478.635468,379.341492 
	C487.717712,371.547577 493.032318,361.332092 497.065430,350.253174 
	C499.688965,343.046326 503.683441,341.684418 510.746643,344.953308 
	C511.498260,345.301147 512.248901,345.651062 513.000000,346.000000 
	C513.000000,349.361298 513.000000,352.722565 513.000000,356.541931 
M322.676941,342.571136 
	C323.319946,337.488129 323.766632,332.369965 324.668457,327.333313 
	C325.381409,323.351501 324.142487,320.896515 320.676605,318.772217 
	C309.651794,312.015076 298.792877,304.986755 287.888885,298.033356 
	C271.949310,287.868835 256.024384,277.681335 240.097839,267.496399 
	C237.322250,265.721436 234.785370,264.778992 231.683731,267.318207 
	C216.409943,279.822235 205.563187,295.288055 198.901459,313.912598 
	C195.348206,323.846680 194.120743,334.146606 192.393295,344.401367 
	C191.665680,348.720795 193.721649,349.729492 197.725235,349.718689 
	C237.518951,349.611115 277.313568,349.568481 317.106567,349.770142 
	C322.194061,349.795898 323.120819,347.599731 322.676941,342.571136 
M346.382812,248.063385 
	C350.256989,250.567810 353.991058,253.317932 358.282440,255.053925 
	C361.579224,252.266434 364.830963,249.686966 367.893005,246.899139 
	C382.756012,233.367096 400.089081,224.160248 418.898621,217.468628 
	C423.938568,215.675629 430.467987,214.983856 428.128418,206.749405 
	C428.091095,206.617966 428.263672,206.440277 428.274384,206.279907 
	C428.747589,199.205276 433.180328,195.107712 438.767090,191.540878 
	C444.016418,188.189468 445.225555,183.878723 442.634186,179.856049 
	C441.471008,178.050522 440.153473,176.305969 438.684448,174.741806 
	C421.883850,156.853333 403.705292,140.666519 381.984009,128.836655 
	C379.876160,127.688683 377.936127,126.320053 375.260162,125.683296 
	C377.967957,134.544067 380.651886,142.804276 381.682831,151.649536 
	C383.634705,168.395889 379.210236,182.759827 367.882385,195.093887 
	C357.380371,206.528809 343.617157,212.879288 329.900665,219.267685 
	C324.723236,221.679031 319.451263,223.887268 313.338867,226.576889 
	C324.323547,234.612411 335.252838,240.843658 346.382812,248.063385 
M80.031410,376.563080 
	C76.041039,377.872162 71.981651,376.743225 68.313011,375.846466 
	C43.907646,369.880676 30.302214,347.767883 36.068958,323.498322 
	C43.530968,292.094086 81.742737,281.291779 104.886208,300.870575 
	C106.449692,302.193237 108.147758,303.905914 110.067276,303.428375 
	C115.429138,302.094482 120.624420,300.159790 125.670837,296.994171 
	C109.600212,278.434235 90.247528,269.977509 66.339943,274.479858 
	C34.541092,280.468292 13.259797,309.605316 17.635761,342.274963 
	C22.241993,376.663635 55.333755,399.921356 87.737953,393.676727 
	C112.673317,388.871429 128.177170,373.507599 136.288422,350.122467 
	C138.894409,342.609253 138.371796,342.350250 130.475372,342.360291 
	C128.476273,342.362823 126.453133,342.567810 124.483322,342.329803 
	C120.888901,341.895569 119.460243,343.811646 118.558243,346.895203 
	C113.527069,364.094666 98.600739,375.759003 80.031410,376.563080 
M189.636658,267.781677 
	C193.098267,270.006439 196.285080,272.695343 200.679108,274.462769 
	C210.001328,262.214417 222.011398,252.857941 234.511307,243.913818 
	C232.782745,241.372650 230.743530,240.326859 228.657104,239.284958 
	C220.176117,235.049805 211.366943,231.334030 203.344391,226.354385 
	C193.802780,220.431870 184.035751,217.450104 172.716431,218.244583 
	C160.468307,219.104233 149.140015,215.352753 138.708633,208.922607 
	C137.142990,207.957550 135.401855,206.816803 133.569656,207.528519 
	C126.971680,210.091507 120.212692,212.314163 113.006691,216.211563 
	C138.786865,233.617126 163.879532,250.558533 189.636658,267.781677 
M311.409943,246.218048 
	C308.470093,244.348557 305.350952,242.706863 302.627075,240.562988 
	C296.631226,235.843903 290.651245,233.304459 283.476410,238.340958 
	C281.357391,239.828445 278.565063,240.318954 276.185364,241.479736 
	C268.205719,245.372101 260.036224,248.927292 251.405258,254.434189 
	C278.008911,271.345367 303.704071,287.679047 329.849915,304.299194 
	C333.915649,292.046509 338.967529,281.805695 345.545380,272.349060 
	C347.386139,269.702637 346.375916,268.386597 343.922150,266.853149 
	C333.239838,260.177429 322.682007,253.302521 311.409943,246.218048 
M414.496246,324.067505 
	C414.246948,324.857452 414.017242,325.654266 413.745300,326.436371 
	C410.537018,335.663513 412.808960,343.854034 419.053711,350.872162 
	C426.331512,359.051239 435.618683,361.831665 446.132080,358.611725 
	C456.814514,355.339996 464.325134,345.379150 464.649292,335.043060 
	C464.981659,324.445251 458.361511,313.999146 448.268005,309.951416 
	C444.722382,308.529510 440.830414,307.317047 436.582458,309.059021 
	C436.980835,310.236816 437.210876,311.183411 437.609467,312.052704 
	C440.444824,318.236298 443.493927,324.329193 446.114441,330.601593 
	C448.068726,335.279236 446.278107,339.405853 442.029755,341.338715 
	C437.509705,343.395233 433.169342,341.908905 430.726227,337.382935 
	C429.385559,334.899353 428.179565,332.343201 426.902313,329.825134 
	C424.694000,325.471497 422.477539,321.122009 420.077545,316.403168 
	C417.340790,318.755920 416.005310,321.019806 414.496246,324.067505 
M99.550148,342.422821 
	C94.223129,342.404663 88.895683,342.423035 83.569206,342.359406 
	C76.278915,342.272339 70.807518,337.822876 69.741699,331.191681 
	C68.604897,324.118866 71.842224,318.530121 78.701965,315.796875 
	C82.205620,314.400848 85.732933,313.064270 89.357819,311.658844 
	C88.521759,310.257263 87.541443,309.782440 86.412903,309.419281 
	C77.184586,306.449768 68.453201,307.843262 61.220760,314.016022 
	C53.779011,320.367462 50.196693,328.685913 52.260658,338.853699 
	C54.362808,349.209534 62.798035,357.878937 72.746918,359.546112 
	C83.956528,361.424500 95.351219,355.989502 100.600815,346.352386 
	C101.383858,344.914886 102.161697,343.706512 99.550148,342.422821 
M182.068970,309.892242 
	C182.376266,307.187164 185.083099,305.065430 183.955215,301.381287 
	C175.780533,301.935089 167.529266,299.970001 159.430664,303.143188 
	C146.772842,308.102753 134.007492,312.788879 121.366982,317.791229 
	C115.242004,320.215149 108.795403,321.932465 102.019760,325.654480 
	C123.686188,325.654480 144.178543,325.656738 164.670898,325.653687 
	C177.466583,325.651764 177.463837,325.647369 180.874039,313.481079 
	C181.142624,312.522797 181.486435,311.585602 182.068970,309.892242 
M70.711884,187.743088 
	C76.787025,191.792633 83.141571,195.488785 88.850014,200.002121 
	C93.523323,203.697052 97.815010,204.206573 102.932762,201.483459 
	C108.392952,198.578094 114.622597,197.292114 120.035591,193.998474 
	C114.608635,187.241470 108.031029,183.516586 100.503006,182.409393 
	C87.950134,180.563156 75.361183,181.641525 61.624226,181.425476 
	C65.055122,183.849762 67.571609,185.627914 70.711884,187.743088 
M74.280464,216.943954 
	C71.665878,218.278809 69.051292,219.613647 66.436699,220.948502 
	C72.366112,220.758774 78.106354,220.097275 83.768562,218.300720 
	C81.054848,214.363831 78.114021,214.532364 74.280464,216.943954 
z"/>
</svg>